<?xml version="1.0" encoding="utf-8"?>
<!-- Generator: Adobe Illustrator 18.0.0, SVG Export Plug-In . SVG Version: 6.00 Build 0)  -->
<!DOCTYPE svg PUBLIC "-//W3C//DTD SVG 1.1//EN" "http://www.w3.org/Graphics/SVG/1.1/DTD/svg11.dtd">
<svg version="1.1" id="Layer_1" xmlns="http://www.w3.org/2000/svg" xmlns:xlink="http://www.w3.org/1999/xlink" x="0px" y="0px"
	 viewBox="0 0 105 105" enable-background="new 0 0 105 105" xml:space="preserve">
<g>
	<path id="facebook-facebook" fill="#FFFFFF" d="M87.4,13.3H17.6c-2.4,0-4.3,1.9-4.3,4.3v69.7c0,2.4,1.9,4.3,4.3,4.3h37.5V61.3H45
		V49.5h10.2v-8.7c0-10.1,6.2-15.6,15.2-15.6c4.3,0,8,0.3,9.1,0.5v10.6l-6.3,0c-4.9,0-5.9,2.3-5.9,5.8v7.6h11.7l-1.5,11.8H67.4v30.4
		h20c2.4,0,4.3-1.9,4.3-4.3V17.6C91.7,15.2,89.8,13.3,87.4,13.3z"/>
</g>
</svg>
