<?xml version="1.0" encoding="utf-8"?>
<!-- Generator: Adobe Illustrator 18.0.0, SVG Export Plug-In . SVG Version: 6.00 Build 0)  -->
<!DOCTYPE svg PUBLIC "-//W3C//DTD SVG 1.1//EN" "http://www.w3.org/Graphics/SVG/1.1/DTD/svg11.dtd">
<svg version="1.1" id="Layer_1" xmlns="http://www.w3.org/2000/svg" xmlns:xlink="http://www.w3.org/1999/xlink" x="0px" y="0px"
	 viewBox="0 0 105 105" enable-background="new 0 0 105 105" xml:space="preserve">
<g>
	<path id="instagram-instagram" fill="#FFFFFF" d="M82.7,46.5h-6.8c0.5,1.9,0.8,3.9,0.8,6c0,13.3-10.8,24.1-24.1,24.1
		c-13.3,0-24.1-10.8-24.1-24.1c0-2.1,0.3-4.1,0.8-6h-6.8v33.2c0,1.7,1.4,3,3,3h54.3c1.7,0,3-1.4,3-3V46.5z M82.7,25.4
		c0-1.7-1.4-3-3-3h-9c-1.7,0-3,1.4-3,3v9c0,1.7,1.4,3,3,3h9c1.7,0,3-1.4,3-3V25.4z M52.5,37.4c-8.3,0-15.1,6.7-15.1,15.1
		c0,8.3,6.7,15.1,15.1,15.1c8.3,0,15.1-6.8,15.1-15.1C67.6,44.2,60.8,37.4,52.5,37.4 M82.7,91.7H22.3c-5,0-9-4.1-9-9V22.3
		c0-5,4-9,9-9h60.3c5,0,9,4,9,9v60.3C91.7,87.6,87.7,91.7,82.7,91.7"/>
</g>
</svg>
